<?xml version="1.0" encoding="utf-8"?>
<!-- Generator: Adobe Illustrator 23.0.3, SVG Export Plug-In . SVG Version: 6.00 Build 0)  -->
<svg version="1.1" id="Layer_1" xmlns="http://www.w3.org/2000/svg" xmlns:xlink="http://www.w3.org/1999/xlink" x="0px" y="0px"
	 viewBox="0 0 950.09 208.96" style="enable-background:new 0 0 950.09 208.96;" xml:space="preserve">
<style type="text/css">
	.st0{fill:#C1E2CB;}
	.st1{fill:#1E3869;}
	.st2{fill:#FEE48B;}
</style>
<polygon class="st0" points="861.66,0 825.67,41.7 885.86,130.59 950.09,130.59 "/>
<polygon class="st1" points="861.66,0 803.33,38.32 803.33,130.59 861.66,130.59 "/>
<polygon class="st2" points="861.66,0 803.33,0 767.96,65.3 826.29,65.3 "/>
<path class="st1" d="M56.78,96.94C24.41,96.94,0,121.02,0,152.95s24.41,56.01,56.78,56.01s56.78-24.08,56.78-56.01
	S89.14,96.94,56.78,96.94z M56.78,188.9c-19.3,0-34.42-15.79-34.42-35.95S37.48,117,56.78,117s34.42,15.79,34.42,35.95
	S76.07,188.9,56.78,188.9z"/>
<path class="st1" d="M165.9,129.89c-7.41,0-14.19,2.23-20.16,6.64v-5.11h-20.83v76h21.59v-48.84c2.34-3.11,8.72-8.63,17.25-8.63
	c4.33,0,8.09,1.38,10.59,3.89c2.94,2.94,4.2,6.93,4.2,13.36v40.22h21.6v-38.69c0-11.94-2.42-20.14-7.86-26.59
	C185.8,134.36,176.18,129.89,165.9,129.89z"/>
<path class="st1" d="M247.73,129.89c-21.09,0-37,17.03-37,39.61c0,23.23,16.35,39.46,39.76,39.46c12.15,0,24.08-5.22,31.14-13.63
	l0.49-0.59l-12.5-12.5l-0.59,0.64c-1.79,1.95-8.4,8.32-18.09,8.32c-9.98,0-17.72-6.51-19.13-15.96h51.25l0.12-0.68
	c0.31-1.68,0.47-3.7,0.47-5.82C283.67,146.95,267.88,129.89,247.73,129.89z M232.8,159.01c1.28-5.63,7.08-11.36,14.94-11.36
	c7.47,0,12.77,5.73,13.76,11.36H232.8z"/>
<path class="st1" d="M330.56,98.47l-46.69,108.95h23.43l10.11-23.76h41.96l10.11,23.76h23.43L346.22,98.47H330.56z M325.94,163.6
	l12.37-28.77l12.37,28.77H325.94z"/>
<path class="st1" d="M527.28,92.34c-7.78,0-13.87,5.96-13.87,13.56s6.09,13.56,13.87,13.56c7.77,0,13.86-5.96,13.86-13.56
	S535.06,92.34,527.28,92.34z"/>
<path class="st1" d="M481.37,129.96c0-6.67,0.99-9.26,2.56-11.26c2.23-2.65,5.78-4,10.55-4c1.8,0,4.17,0.3,5.76,0.74l0.88,0.24
	L504.49,97l-0.75-0.19c-3.82-0.99-7.41-1.41-12.01-1.41c-9.34,0-17.77,3.19-23.73,8.97c-5.68,5.52-8.22,13.17-8.22,24.82v2.23
	h-35.11v-1.46c0-6.67,0.99-9.26,2.56-11.26c2.23-2.65,5.78-4,10.55-4c1.8,0,4.17,0.3,5.76,0.74l0.88,0.24L447.77,97l-0.75-0.2
	c-3.81-0.99-7.4-1.41-12.01-1.41c-9.34,0-17.76,3.19-23.72,8.97c-5.69,5.53-8.23,13.18-8.23,24.82v2.23h-19.16v18.53h19.16v57.47
	h21.6v-57.47h35.11v57.47h21.59v-57.47h35.11v57.47h21.59v-76h-56.71V129.96z"/>
<path class="st1" d="M594.26,129.89c-7.42,0-14.19,2.23-20.16,6.64v-5.11h-20.83v76h21.59v-48.84c2.35-3.11,8.73-8.63,17.25-8.63
	c4.32,0,8.09,1.38,10.6,3.89c2.94,2.94,4.2,6.94,4.2,13.36v40.22h21.59v-38.69c0-11.94-2.42-20.14-7.85-26.59
	C614.16,134.36,604.54,129.89,594.26,129.89z"/>
<ellipse class="st1" cx="652.95" cy="105.9" rx="13.86" ry="13.56"/>
<rect x="642.15" y="131.42" class="st1" width="21.59" height="76"/>
<path class="st1" d="M709.84,110.73h-21.59v20.69h-14.8v18.53h14.8v25.22c0,10.67,1.7,17.46,5.68,22.73
	c5.43,7.24,14.57,11.06,26.42,11.06c3.96,0,10.01-0.64,12.7-1.58l0.67-0.24l-3.35-18.41l-0.85,0.19c-1.37,0.3-5.15,0.75-7.94,0.75
	c-4.34,0-7.53-1.14-9.48-3.38c-1.58-1.87-2.26-4.5-2.26-8.81v-27.52h24.52v-18.53h-24.52V110.73z"/>
<rect x="745.72" y="131.42" class="st1" width="21.59" height="76"/>
<ellipse class="st1" cx="756.52" cy="105.9" rx="13.86" ry="13.56"/>
</svg>
